<svg xmlns="http://www.w3.org/2000/svg" xmlns:xlink="http://www.w3.org/1999/xlink" viewBox="0,0,256,256" width="32px" height="32px" fill-rule="nonzero"><g fill-opacity="0" fill="#ffffff" fill-rule="nonzero" stroke="none" stroke-width="1" stroke-linecap="butt" stroke-linejoin="miter" stroke-miterlimit="10" stroke-dasharray="" stroke-dashoffset="0" font-family="none" font-weight="none" font-size="none" text-anchor="none" style="mix-blend-mode: normal"><path d="M0,256v-256h256v256z" id="bgRectangle"></path></g><g fill="none" fill-rule="nonzero" stroke="none" stroke-width="1" stroke-linecap="butt" stroke-linejoin="miter" stroke-miterlimit="10" stroke-dasharray="" stroke-dashoffset="0" font-family="none" font-weight="none" font-size="none" text-anchor="none" style="mix-blend-mode: normal"><g transform="translate(256.064,256.0064) rotate(-180) scale(6.4,6.4)"><path d="M28.696,39.001c-2.83,0 -4.863,-1.823 -6.496,-3.288c-0.822,-0.738 -1.563,-1.468 -2.23,-2.185c-0.777,0.885 -1.653,1.818 -2.638,2.796v0c-1.764,1.751 -3.842,2.676 -6.009,2.676c-4.584,0 -8.314,-3.885 -8.314,-8.66c0,-0.901 0.133,-1.79 0.394,-2.642l0.059,-0.15l10.878,-22.507c0.903,-2.419 3.174,-4.041 5.669,-4.041c2.434,0 4.623,1.501 5.586,3.828l10.559,21.684c0.57,1.206 0.855,2.49 0.855,3.828c0.001,4.776 -3.729,8.661 -8.313,8.661zM21.283,31.963c0.654,0.714 1.389,1.444 2.212,2.182c1.761,1.579 3.262,2.787 5.201,2.787c3.489,0 6.328,-2.957 6.328,-6.592c0,-1.019 -0.217,-1.996 -0.646,-2.905l-10.596,-21.765c-0.644,-1.58 -2.125,-2.601 -3.772,-2.601c-1.693,0 -3.233,1.108 -3.832,2.757l-0.042,0.099l-10.864,22.479c-0.184,0.625 -0.277,1.276 -0.277,1.937c0,3.635 2.839,6.592 6.328,6.592c2.08,0 3.671,-1.145 4.639,-2.106v0c1.009,-1.001 1.892,-1.948 2.667,-2.841c-4.478,-5.514 -4.692,-9.916 -4.699,-10.139c0,-3.53 2.727,-6.371 6.08,-6.371c3.339,0 6.058,2.818 6.08,6.29c0.043,0.652 0.011,4.175 -4.807,10.197zM20.01,17.545c-2.258,0 -4.095,1.914 -4.095,4.265c0.001,0.012 0.224,3.757 4.03,8.582c4.279,-5.464 4.165,-8.461 4.163,-8.498l-0.003,-0.084c-0.001,-2.352 -1.838,-4.265 -4.095,-4.265z" fill="#f78f8f"></path><path d="M20.01,1.001c2.434,0 4.623,1.501 5.586,3.828l10.559,21.685c0.569,1.206 0.855,2.49 0.855,3.828c0,4.775 -3.729,8.66 -8.314,8.66c-2.83,0 -4.863,-1.823 -6.496,-3.288c-0.822,-0.738 -1.563,-1.468 -2.23,-2.185c-0.777,0.885 -1.653,1.818 -2.638,2.796c-1.764,1.751 -3.842,2.676 -6.009,2.676c-4.584,0 -8.314,-3.885 -8.314,-8.66c0,-0.901 0.133,-1.79 0.394,-2.642l0.059,-0.15l10.878,-22.508c0.903,-2.419 3.174,-4.04 5.67,-4.04M11.323,36.933c2.08,0 3.671,-1.145 4.639,-2.106c1.009,-1.001 1.892,-1.948 2.667,-2.84c-4.478,-5.514 -4.692,-9.916 -4.699,-10.139c0,-3.53 2.727,-6.371 6.08,-6.371c3.339,0 6.057,2.818 6.08,6.29c0.043,0.651 0.012,4.174 -4.807,10.197c0.654,0.714 1.389,1.444 2.212,2.182c1.761,1.579 3.262,2.787 5.201,2.787c3.49,0 6.328,-2.957 6.328,-6.592c0,-1.019 -0.217,-1.996 -0.646,-2.905l-10.596,-21.766c-0.644,-1.58 -2.125,-2.601 -3.772,-2.601c-1.693,0 -3.233,1.108 -3.832,2.757l-0.042,0.099l-10.864,22.479c-0.184,0.625 -0.277,1.276 -0.277,1.937c0,3.634 2.839,6.592 6.328,6.592M19.945,30.392c4.279,-5.464 4.165,-8.461 4.163,-8.498l-0.003,-0.084c0,-2.352 -1.837,-4.265 -4.095,-4.265c-2.258,0 -4.095,1.914 -4.095,4.265c0.001,0.012 0.224,3.758 4.03,8.582M20.01,0.001c-2.889,0 -5.531,1.865 -6.589,4.646l-10.859,22.467l-0.016,0.033l-0.014,0.034l-0.059,0.15l-0.014,0.036l-0.012,0.037c-0.29,0.949 -0.437,1.936 -0.437,2.937c0,5.326 4.178,9.66 9.314,9.66c2.436,0 4.757,-1.026 6.713,-2.967c0.688,-0.683 1.344,-1.365 1.959,-2.037c0.49,0.493 1.004,0.982 1.536,1.46c1.667,1.496 3.951,3.544 7.164,3.544c5.136,0 9.314,-4.333 9.314,-9.66c0,-1.488 -0.32,-2.919 -0.951,-4.255l-10.552,-21.669c-1.123,-2.684 -3.67,-4.416 -6.497,-4.416zM6.21,28.762l10.826,-22.402l0.062,-0.141l0.011,-0.025l0.01,-0.026c0.455,-1.255 1.618,-2.098 2.892,-2.098c1.239,0 2.356,0.777 2.846,1.978l0.013,0.031l0.014,0.03l10.597,21.766c0.36,0.763 0.545,1.596 0.545,2.467c0,3.083 -2.39,5.592 -5.328,5.592c-1.588,0 -2.88,-1.049 -4.533,-2.531c-0.546,-0.489 -1.069,-0.991 -1.562,-1.499c4.352,-5.685 4.547,-9.168 4.489,-10.171c-0.041,-4.003 -3.212,-7.255 -7.08,-7.255c-1.899,0 -3.682,0.771 -5.02,2.171c-1.328,1.389 -2.06,3.236 -2.06,5.2c0.017,0.514 0.283,4.73 4.397,10.102c-0.642,0.713 -1.336,1.44 -2.069,2.167c-0.835,0.828 -2.195,1.816 -3.934,1.816c-2.938,0 -5.328,-2.508 -5.328,-5.592c-0.003,-0.539 0.069,-1.07 0.212,-1.58zM16.915,21.772c0.019,-1.783 1.4,-3.227 3.095,-3.227c1.707,0 3.095,1.465 3.095,3.265l0.004,0.125c0,0.018 -0.005,2.417 -3.161,6.791c-2.67,-3.781 -3.002,-6.607 -3.033,-6.954z" fill="#c74343"></path></g></g></svg>